<?xml version="1.0" encoding="UTF-8"?>
<!-- Created with Inkscape (http://www.inkscape.org/) -->
<svg width="25.437mm" height="27.102mm" version="1.1" viewBox="0 0 25.437 27.102" xmlns="http://www.w3.org/2000/svg" xmlns:cc="http://creativecommons.org/ns#" xmlns:dc="http://purl.org/dc/elements/1.1/" xmlns:rdf="http://www.w3.org/1999/02/22-rdf-syntax-ns#">
 <metadata>
  <rdf:RDF>
   <cc:Work rdf:about="">
    <dc:format>image/svg+xml</dc:format>
    <dc:type rdf:resource="http://purl.org/dc/dcmitype/StillImage"/>
    <dc:title/>
   </cc:Work>
  </rdf:RDF>
 </metadata>
 <g transform="translate(-37.181 -79.945)" fill="#fff">
  <g transform="matrix(.26458 0 0 .26458 .18899 .56696)" aria-label="DC">
   <path d="m140.4 365.64v-13.125h6.5625v-39.375h-6.5625v-13.125h35.438l10.5 10.5v44.625l-10.5 10.5zm19.688-13.125h13.125v-39.375h-13.125z"/>
   <path d="m206.21 365.64-10.5-10.5v-44.625l10.5-10.5h18.375l10.5 10.5v9.1875h-13.125v-6.5625h-13.125v39.375h13.125v-6.5625h13.125v9.1875l-10.5 10.5z"/>
  </g>
  <g transform="matrix(.28813 0 0 .28813 -4.544 -13.765)" aria-label="ROCK">
   <path d="m144.81 419.29v-5.4688h2.7344v-16.406h-2.7344v-5.4688h14.766l4.375 4.375v7.6562l-1.6406 1.6406 1.6406 1.6406v6.5625h2.7344v5.4688h-10.547v-5.4688h2.3438v-5.4688h-5.4688v5.4688h2.3438v5.4688zm8.2031-16.406h5.4688v-5.4688h-5.4688z"/>
   <path d="m174.97 419.29-4.375-4.375v-18.594l4.375-4.375h7.6562l4.375 4.375v18.594l-4.375 4.375zm1.0938-5.4688h5.4688v-16.406h-5.4688z"/>
   <path d="m195.28 419.29-4.375-4.375v-18.594l4.375-4.375h7.6562l4.375 4.375v3.8281h-5.4688v-2.7344h-5.4688v16.406h5.4688v-2.7344h5.4688v3.8281l-4.375 4.375z"/>
   <path d="m211.22 419.29v-5.4688h2.7344v-16.406h-2.7344v-5.4688h10.547v5.4688h-2.3438v7.2656l5.4688-7.2656h-2.3438v-5.4688h10.547v5.4688h-2.1875l-6.3281 8.125 6.3281 8.2812h2.1875v5.4688h-10.547v-5.4688h2.0312l-3.5156-4.5312-1.6406 2.1875v2.3438h2.3438v5.4688z"/>
  </g>
 </g>
</svg>
